<?xml version="1.0" encoding="UTF-8" standalone="no"?>
<svg width="513px" height="512px" viewBox="0 0 513 512" version="1.1" xmlns="http://www.w3.org/2000/svg" xmlns:xlink="http://www.w3.org/1999/xlink" xmlns:sketch="http://www.bohemiancoding.com/sketch/ns">
    <!-- Generator: Sketch 3.2.2 (9983) - http://www.bohemiancoding.com/sketch -->
    <title>Logo</title>
    <desc>Created with Sketch.</desc>
    <defs></defs>
    <g id="Page-1" stroke="none" stroke-width="1" fill="none" fill-rule="evenodd" sketch:type="MSPage">
        <g id="Logo" sketch:type="MSArtboardGroup" transform="translate(0.100000, 0.000000)">
            <circle id="Oval-1" stroke="#979797" fill="#FFFFFF" sketch:type="MSShapeGroup" cx="256" cy="256" r="256"></circle>
            <g id="Shape-+-Shape" sketch:type="MSLayerGroup" transform="translate(0.000000, 0.000000)" fill="#205CAA">
                <path d="M227.035429,510.280246 C139.849143,500.186532 64.9508571,446.938532 26.0388571,367.797961 C-31.744,249.599103 9.65485714,106.824246 122.002286,37.9236749 C239.177143,-34.0488966 391.606857,-0.695753704 468.699429,113.992246 C479.232,129.644818 492.836571,157.439103 498.688,174.993389 C535.990857,287.779675 490.788571,411.829961 389.705143,473.855103 C341.723429,503.404818 282.185143,516.716818 227.035429,510.280246 L227.035429,510.280246 Z M287.459742,469.616489 C334.029809,462.587094 374.09764,442.026112 408.014708,408.109279 C472.86133,343.263107 489.907732,248.366268 451.772998,165.067933 C431.563346,121.309946 390.441098,80.1879833 346.682809,59.9784715 C288.689895,33.2667689 222.964593,33.2667689 164.971679,59.9784715 C121.213389,80.1879833 80.0911414,121.309946 59.8814896,165.067933 C28.4247273,233.780273 34.2240187,310.927888 75.8734749,374.895386 C88.8779465,395.104898 116.644251,422.87101 136.853902,435.875391 C182.545289,465.750322 235.090384,477.348824 287.459742,469.616489 L287.459742,469.616489 Z" id="Shape" sketch:type="MSShapeGroup" transform="translate(255.854280, 255.944695) scale(1, -1) translate(-255.854280, -255.944695) "></path>
                <path d="M231.715511,450.981798 C157.599293,441.644106 93.17258,389.353027 69.7137769,319.574996 C61.7241845,295.806323 59.8542799,283.752211 59.8542799,255.739133 C59.8542799,221.444334 65.4639937,196.147676 79.2332912,168.643926 C106.431903,114.485309 155.729388,76.6252093 217.096257,62.8733346 C234.09539,58.9684812 277.61317,58.9684812 294.612302,62.8733346 C355.979171,76.6252093 405.276656,114.485309 432.475269,168.643926 C446.244566,196.147676 451.85428,221.444334 451.85428,255.739133 C451.85428,291.561918 445.904583,316.858576 430.435373,346.39964 C403.23676,398.520943 353.429302,436.211266 294.782294,448.435155 C279.823057,451.660903 247.014731,453.019113 231.715511,450.981798 L231.715511,450.981798 Z M200.437107,405.311992 C200.947081,404.463111 197.377263,400.89781 192.447515,397.332509 C187.347775,393.427656 183.437975,389.013474 183.097992,386.976159 L182.588018,383.241082 L190.237628,387.485488 C194.487411,389.862355 198.737194,391.390341 199.757142,390.711236 C202.986977,388.673922 201.457055,385.108621 195.507359,381.54332 C188.537714,377.46869 186.157836,372.375404 186.157836,361.849277 C186.157836,356.416438 187.177784,353.190689 190.407619,349.625389 C194.487411,345.04143 194.487411,345.04143 194.657402,348.776507 C194.657402,354.209347 199.417159,353.530242 200.607099,347.927626 C202.477003,339.608591 206.046821,334.854857 216.926266,326.535821 L227.63572,318.216786 L230.525572,322.291415 L233.585416,326.196269 L236.475269,319.405219 C239.875095,310.916408 257.724184,286.468631 260.444046,286.298854 C261.463994,286.298854 264.353846,288.675722 266.733725,291.392141 C270.643525,296.145876 272.173447,299.880953 275.233291,313.97238 C276.253239,317.877233 276.933204,318.556338 278.803109,316.858576 C280.16304,315.839919 281.352979,312.953723 281.692962,310.407079 L282.202936,305.992897 L291.552459,313.632828 C303.961825,323.649625 306.341704,328.742912 303.621843,338.75971 C302.091921,344.701878 302.091921,346.569416 303.791834,347.75785 C306.341704,349.285836 313.651331,341.985458 313.651331,337.910829 C313.651331,333.496647 317.221149,335.533961 319.771019,341.47613 C325.210741,354.718676 321.300941,367.451893 310.251505,371.866075 C302.771886,374.752271 302.091921,377.638467 308.041617,379.845558 C310.421496,380.694439 313.651331,380.015334 317.731123,377.808243 C325.04075,373.90339 325.550724,373.90339 325.550724,377.129138 C325.550724,380.354886 316.03121,391.050789 311.781426,392.408999 C307.191661,393.936985 307.701635,398.351167 312.461392,398.351167 C321.980906,398.351167 335.070238,384.599292 339.15003,370.338089 C340.849943,364.056368 340.849943,360.660844 339.320021,353.360466 C336.430169,340.457472 328.780559,330.101122 311.271452,315.33059 C302.941877,308.199988 292.742398,298.352967 288.322623,293.25968 L280.503022,284.091763 L288.152632,287.996617 C298.352112,293.089904 304.811782,294.957442 309.741531,293.769009 C315.181253,292.241023 314.671279,288.336169 307.191661,277.640267 C301.751938,269.83056 299.542051,268.302574 292.402415,266.265259 C287.642658,264.907049 283.562866,263.54884 283.222884,263.379063 C283.052892,263.039511 284.582814,260.153315 286.962693,257.097343 C293.592354,248.438755 299.542051,235.196209 304.641791,218.897691 C308.721583,205.655145 309.231557,201.071187 309.231557,178.490948 C309.401548,158.1178 308.721583,151.326751 306.341704,144.365925 C301.071973,128.916288 276.253239,96.1494758 269.96356,96.1494758 C268.433638,96.1494758 264.86382,98.6961193 261.973968,101.752091 C259.084115,104.638287 252.284462,110.920008 246.84474,115.503966 C229.675616,129.934946 213.356448,154.892052 213.356448,166.606612 C213.356448,173.397661 218.456188,181.377144 225.935806,185.961102 C232.055494,189.865955 233.075442,191.733494 236.815251,209.390222 L238.515165,216.520824 L228.485676,215.502166 C218.966162,214.483509 217.946214,214.823061 209.106665,220.765229 C199.247168,227.216726 196.017333,233.32867 199.927133,238.082405 C201.117073,239.610391 205.706838,242.496587 210.126613,244.703678 C217.266249,248.438755 232.055494,262.699958 232.055494,266.095483 C232.055494,266.944364 227.63572,270.509665 222.365988,274.244742 C206.046821,285.280197 199.417159,294.278337 204.006925,298.862296 C206.046821,300.89961 208.086717,300.729834 218.286197,298.183191 C224.745867,296.485428 232.055494,293.769009 234.435373,292.071246 C240.215078,288.505945 240.045086,291.052589 234.09539,299.201848 C227.805711,307.69066 219.646127,314.991037 199.417159,330.270898 C182.248035,343.004116 173.408486,353.700018 171.538582,363.716816 C170.178651,370.677641 173.238495,383.410859 178.168243,392.408999 C183.777957,402.425796 197.377263,410.405279 200.437107,405.311992 L200.437107,405.311992 Z" id="Shape" sketch:type="MSShapeGroup" transform="translate(255.854280, 255.944695) scale(1, -1) translate(-255.854280, -255.944695) "></path>
            </g>
        </g>
    </g>
</svg>